# Alias OBJ Model File
# Exported from SketchUp, (c) 2000-2012 Trimble Navigation Limited
# File units = meters

mtllib LeftA.mtl

g Mesh1 Group1 Model

usemtl txt
v 0.777509 2.51777 0.000837516
vt 20 121
vn -1.2221e-05 5.39232e-16 1
v 0.777509 2.13549 0.000837516
vt 20 120
v 1.39403 2.13549 0.000946097
vt 19 120
v 1.39403 2.51777 0.000946097
vt 19 121
f 1/1/1 2/2/1 3/3/1 4/4/1 

usemtl clear
v 0.777509 2.51777 0.000767516
vt 0.001 38.0094
vn -1 -6.71503e-16 -0.000176118
v 0.777509 2.13549 0.000767516
vt 0.001 4.11567e-14
vt 6.6093e-19 4.11567e-14
vt 2.2031e-19 38.0094
f 5/5/2 6/6/2 2/7/2 1/8/2 

usemtl txt1
vt -41 123
vn 1.2221e-05 -5.39232e-16 -1
vt -41 124
v 1.39403 2.51777 0.000876097
vt -41.9891 124
v 1.39403 2.13549 0.000876097
vt -41.9891 123
f 6/9/3 5/10/3 7/11/3 8/12/3 

usemtl FrontColor
vt -1.82651e-07 0.00393701
vn -7.21277e-25 1 2.0849e-15
vt 131.633 0.0100439
vt 131.633 0.00610689
vt -5.88713e-23 1.26896e-18
f 7/13/4 5/14/4 1/15/4 4/16/4 

usemtl clear
vt -0.001 -2.43627e-50
vn 1 9.49693e-20 0.000176118
vt -0.001 38.0094
vt 0 38.0094
vt 0 0
f 8/17/5 7/18/5 4/19/5 3/20/5 

usemtl FrontColor
vt -131.633 0.0100439
vn 7.21277e-25 -1 -2.0849e-15
vt 1.82651e-07 0.00393701
vt -131.633 0.00610689
f 6/21/6 8/22/6 3/20/6 2/23/6 

g Mesh2 Group2 Model

usemtl txt2
v 0.113709 2.48918 0.000800752
vt 26 46
vn -1.22536e-05 5.53366e-16 1
v 0.113709 2.13562 0.000800752
vt 26 45
v 0.731877 2.13562 0.000909333
vt 25 45
v 0.731877 2.48918 0.000909333
vt 25 46
f 9/24/7 10/25/7 11/26/7 12/27/7 

usemtl clear
v 0.113709 2.48918 0.000730752
vn -1 -6.19409e-16 -0.000175649
v 0.113709 2.13562 0.000730752
vt -2.2031e-19 4.11567e-14
vt -2.64372e-18 38.0094
f 13/5/8 14/6/8 10/28/8 9/29/8 

usemtl txt3
vt -38.996 91.9823
vn 1.22536e-05 -5.53366e-16 -1
vt -38.996 92.9823
v 0.731877 2.48918 0.000839333
vt -39.9989 92.9898
v 0.731877 2.13562 0.000839333
vt -39.9989 91.9898
f 14/30/9 13/31/9 15/32/9 16/33/9 

usemtl FrontColor
vn -7.8195e-25 1 2.31335e-15
f 15/13/10 13/14/10 9/15/10 12/16/10 

usemtl clear
vt -0.001 6.91568e-50
vn 1 9.71988e-20 0.000175649
f 16/34/11 15/18/11 12/19/11 11/20/11 

usemtl FrontColor
vn 7.8195e-25 -1 -2.31335e-15
f 14/21/12 16/22/12 11/20/12 10/23/12 

g Mesh3 Group3 Model

usemtl LeftA
v -0.00894991 2.78576 -0.0191451
vt 8 306
vn 3.93179e-05 6.825e-18 1
v -0.00894991 2.04503 -0.0191451
vt 8 305
v 1.83245 2.04503 -0.0192175
vt 7 305
v 1.83245 2.78576 -0.0192175
vt 7 306
f 17/35/13 18/36/13 19/37/13 20/38/13 

usemtl FrontColor
v -0.00894998 2.78576 -0.0209351
vt 0.0409625 16.292
vn -1 -4.3613e-16 3.93179e-05
v -0.00894998 2.04503 -0.0209351
vt 0.0409625 1.76635e-14
vt 0.0015924 1.76635e-14
vt 0.0015924 16.292
f 21/39/14 22/40/14 18/41/14 17/42/14 

usemtl FlipIco
vt -9 90
vn -3.93179e-05 -6.825e-18 -1
vt -9 91
v 1.83245 2.78576 -0.0210075
vt -8 91
v 1.83245 2.04503 -0.0210075
vt -8 90
f 22/43/15 21/44/15 23/45/15 24/46/15 

usemtl FrontColor
vt 1.54795e-06 0.0409625
vn -2.68345e-22 1 -6.825e-18
vt 40.5005 0.0393701
vt 40.5005 -1.70511e-19
vt -4.37187e-21 0.0015924
f 23/47/16 21/48/16 17/49/16 20/50/16 

vt -0.0409625 1.67752e-29
vn 1 -2.67933e-22 -3.93179e-05
vt -0.0409625 16.292
vt -0.0015924 16.292
vt -0.0015924 1.67752e-29
f 24/51/17 23/52/17 20/53/17 19/54/17 

vt -40.5005 0.0393701
vn 2.68345e-22 -1 6.825e-18
vt -1.54795e-06 0.0409625
vt 0 0.0015924
vt -40.5005 -7.41748e-38
f 22/55/18 24/56/18 19/57/18 18/58/18 

